# xmcd
#
# Track frame offsets:
#	150
#	20007
#	45545
#	68566
#	93847
#	121041
#	156405
#	179371
#	198265
#
# Disc length: 3024 seconds
#
# Revision: 0
# Processed by: cddbd v1.5.1PL2 Copyright (c) Steve Scherf et al.
# Submitted via: EasyCDDAExtractor 9.0.0.1
#
DISCID=6c0bce09
DTITLE=Ozzy Osbourne - Obras Sanitarias Buenos Aires 12-09-95 Disc 1
DYEAR=1995
DGENRE=Hard Rock
TTITLE0=Carmina Burana - Paranoid 
TTITLE1=Desire
TTITLE2=I Don't Know
TTITLE3=Flying High Again 
TTITLE4=Goodbye To Romance 
TTITLE5=No More Tears
TTITLE6=I Just Want You
TTITLE7=I Don't Want To Change The World
TTITLE8=Suicide Solution 
EXTD=
EXTT0=
EXTT1=
EXTT2=
EXTT3=
EXTT4=
EXTT5=
EXTT6=
EXTT7=
EXTT8=
PLAYORDER=
